<svg id="Layer_1" data-name="Layer 1" xmlns="http://www.w3.org/2000/svg" viewBox="0 0 8.12 7.49"><defs><style>.cls-1{fill:#cb1553;}</style></defs><path class="cls-1" d="M686.89,385.25v.05c-.2-.1-1.18-.58-1.36-.65-.41-.15-.3,0-1.08.88-.12.13-.24.14-.44.05a5.41,5.41,0,0,1-1.6-1,5.93,5.93,0,0,1-1.11-1.39c-.2-.33.21-.38.59-1.09a.38.38,0,0,0,0-.35c-.05-.1-.45-1.08-.62-1.47s-.32-.34-.45-.34a1,1,0,0,0-.91.23c-1.08,1.18-.81,2.41.12,3.71,1.81,2.37,2.78,2.81,4.54,3.41a2.66,2.66,0,0,0,1.26.08,2.08,2.08,0,0,0,1.35-.95,1.65,1.65,0,0,0,.12-.95c0-.09-.18-.14-.38-.23Zm0,0" transform="translate(-679.18 -379.93)"/></svg>